<?xml version="1.0" standalone="no"?>
<!DOCTYPE svg PUBLIC "-//W3C//DTD SVG 20010904//EN"
 "http://www.w3.org/TR/2001/REC-SVG-20010904/DTD/svg10.dtd">
<svg version="1.0" xmlns="http://www.w3.org/2000/svg"
 width="500.000000pt" height="500.000000pt" viewBox="0 0 500.000000 500.000000"
 preserveAspectRatio="xMidYMid meet">

<g transform="translate(0.000000,500.000000) scale(0.100000,-0.100000)"
fill="#000000" stroke="none">
<path d="M230 2630 l0 -1370 100 0 99 0 3 -93 3 -92 949 0 949 0 -1 1165 0
1165 -46 3 -46 3 -2 -1118 -3 -1118 -850 0 -850 0 -3 42 -3 43 798 2 798 3 3
1073 2 1072 -50 0 -50 0 0 -1025 0 -1025 -747 2 -748 3 0 1175 0 1175 618 3
617 2 0 50 0 50 -668 -2 -667 -3 -3 -1227 -2 -1228 -50 0 -50 0 0 1275 0 1275
720 0 720 0 0 45 0 45 -770 0 -770 0 0 -1370z"/>
<path d="M1980 3920 l0 -50 50 0 50 0 0 50 0 50 -50 0 -50 0 0 -50z"/>
<path d="M2272 3923 l3 -48 53 -3 52 -3 0 50 0 51 -56 0 -55 0 3 -47z"/>
<path d="M2130 3765 l0 -55 50 0 50 0 0 55 0 55 -50 0 -50 0 0 -55z"/>
<path d="M2380 3765 l0 -55 50 0 50 0 0 55 0 55 -50 0 -50 0 0 -55z"/>
<path d="M3882 3125 c-52 -23 -62 -61 -62 -232 0 -129 3 -152 20 -180 25 -42
53 -56 114 -56 65 -1 106 19 129 63 15 30 17 57 15 190 -3 171 -9 189 -64 215
-40 19 -109 19 -152 0z m98 -65 c12 -7 16 -38 18 -142 4 -144 -5 -188 -37
-188 -36 0 -43 33 -39 181 2 111 6 142 18 149 19 12 21 12 40 0z"/>
<path d="M2610 3118 c0 -7 12 -113 27 -236 l27 -223 45 3 46 3 16 115 c9 63
18 124 21 135 2 11 12 -42 23 -118 l18 -138 46 3 46 3 21 175 c11 96 24 201
27 233 l7 57 -43 0 -44 0 -12 -122 c-7 -68 -14 -124 -16 -126 -1 -2 -5 16 -8
40 -4 24 -11 80 -18 126 l-11 82 -33 0 c-39 0 -38 1 -56 -150 -12 -93 -14
-100 -20 -65 -4 22 -10 79 -14 128 l-8 87 -43 0 c-29 0 -44 -4 -44 -12z"/>
<path d="M3030 2895 l0 -235 55 0 55 0 0 235 0 235 -55 0 -55 0 0 -235z"/>
<path d="M3180 3095 c0 -33 2 -35 35 -35 l35 0 0 -201 0 -200 53 3 52 3 3 198
2 197 35 0 c33 0 35 2 35 35 l0 35 -125 0 -125 0 0 -35z"/>
<path d="M3470 2895 l0 -235 50 0 50 0 0 105 0 105 40 0 40 0 0 -105 0 -105
50 0 50 0 0 235 0 235 -50 0 -50 0 0 -95 0 -95 -40 0 -40 0 0 95 0 95 -50 0
-50 0 0 -235z"/>
<path d="M4161 2948 c0 -115 5 -196 12 -217 18 -52 56 -74 124 -74 68 0 97 13
123 56 18 29 20 52 20 225 l0 192 -50 0 -50 0 0 -183 c0 -193 -6 -223 -45
-216 -28 6 -33 37 -34 227 l-1 172 -50 0 -50 0 1 -182z"/>
<path d="M4480 3095 c0 -33 2 -35 35 -35 l35 0 0 -201 0 -200 53 3 52 3 3 198
2 197 35 0 c33 0 35 2 35 35 l0 35 -125 0 -125 0 0 -35z"/>
<path d="M2630 2085 l0 -235 50 0 50 0 0 105 0 105 45 0 c45 0 45 0 45 35 0
35 0 35 -45 35 l-45 0 0 60 0 60 50 0 50 0 0 35 0 35 -100 0 -100 0 0 -235z"/>
<path d="M2880 2086 l0 -236 50 0 50 0 0 106 c0 94 2 105 17 102 13 -2 24 -29
42 -106 l25 -102 54 0 c46 0 53 2 48 18 -3 9 -17 59 -31 110 l-26 93 22 17
c28 24 42 101 26 149 -20 61 -51 76 -172 81 l-105 5 0 -237z m174 148 c18 -18
21 -66 6 -95 -8 -13 -21 -19 -45 -19 l-35 0 0 65 0 65 29 0 c16 0 37 -7 45
-16z"/>
<path d="M3295 2308 c-5 -16 -85 -435 -85 -448 0 -6 23 -10 50 -10 46 0 50 2
50 24 0 49 17 76 49 76 31 0 41 -18 41 -72 0 -27 2 -28 50 -28 l51 0 -7 38
c-4 20 -24 125 -44 232 l-36 195 -57 3 c-40 2 -59 -1 -62 -10z m79 -250 c7
-47 7 -48 -20 -48 -24 0 -26 3 -20 33 3 17 9 57 13 87 l7 55 7 -40 c3 -22 10
-61 13 -87z"/>
<path d="M3556 2243 c-3 -42 -6 -147 -6 -235 l0 -158 34 0 33 0 7 61 c3 34 6
101 7 148 l1 86 24 -125 c34 -181 29 -170 67 -170 l33 0 24 143 25 142 9 -142
8 -143 34 0 34 0 0 198 c0 108 -3 214 -6 235 l-7 38 -51 -3 -51 -3 -26 -130
c-15 -71 -29 -123 -32 -115 -3 8 -16 68 -28 133 l-21 117 -53 0 -52 0 -7 -77z"/>
<path d="M3960 2085 l0 -235 105 0 105 0 0 35 0 35 -50 0 -50 0 0 70 0 70 40
0 c39 0 40 1 40 35 0 34 -1 35 -40 35 l-40 0 0 60 0 60 50 0 50 0 0 35 0 35
-105 0 -105 0 0 -235z"/>
</g>
</svg>
